<svg xmlns="http://www.w3.org/2000/svg" viewBox="0 0 229.22 26.89"><defs><style>.cls-1{fill:#ea4335;}.cls-2{fill:#4285f4;}.cls-3{fill:#fbbc04;}.cls-4{fill:#0f9d58;}.cls-5,.cls-6{fill:#676c72;}.cls-6{font-size:8.66px;font-family:ProductSans-Bold, Product Sans;font-weight:700;}.cls-7{letter-spacing:0em;}.cls-8{letter-spacing:-0.01em;}.cls-9{letter-spacing:0em;}.cls-10{letter-spacing:-0.02em;}.cls-11{letter-spacing:-0.02em;}.cls-12{letter-spacing:-0.01em;}.cls-13{letter-spacing:-0.03em;}.cls-14{letter-spacing:-0.01em;}.cls-15{letter-spacing:0.01em;}.cls-16{letter-spacing:-0.01em;}.cls-17{letter-spacing:0em;}</style></defs><title>Asset 4</title><g id="Layer_2" data-name="Layer 2"><g id="Layer_1-2" data-name="Layer 1"><g id="Group-2"><g id="Group"><path id="Path" class="cls-1" d="M13.09,14.09l9.28-5.44a4.67,4.67,0,0,0,1.68-6.33A4.53,4.53,0,0,0,17.81.62L1.76,10Z"/></g><g id="Group-2-2" data-name="Group"><path id="Path-2" data-name="Path" class="cls-2" d="M20.18,26.42a4.48,4.48,0,0,0,3.88-2.19,4.32,4.32,0,0,0-1.64-6L6.71,9.39A4.54,4.54,0,0,0,.6,11a4.32,4.32,0,0,0,1.64,6L18,25.83a4.49,4.49,0,0,0,2.23.59"/></g><g id="Group-3" data-name="Group"><path id="Path-3" data-name="Path" class="cls-3" d="M34.52,26.42a4.52,4.52,0,0,0,2.28-.62l16-9.34L41.66,12.33l-9.43,5.49a4.62,4.62,0,0,0-1.67,6.3,4.56,4.56,0,0,0,4,2.3"/></g><g id="Group-4" data-name="Group"><path id="Path-4" data-name="Path" class="cls-4" d="M50.12,17.61A4.49,4.49,0,0,0,54,15.43a4.32,4.32,0,0,0-1.64-6L36.65.59a4.53,4.53,0,0,0-6.11,1.6,4.32,4.32,0,0,0,1.64,6L47.89,17a4.64,4.64,0,0,0,2.23.58"/></g></g><path id="DeveloperStudentClubs" class="cls-5" d="M65,12a6.11,6.11,0,0,0,3-.7,4.83,4.83,0,0,0,1.93-2,5.82,5.82,0,0,0,.68-2.86,5.85,5.85,0,0,0-.68-2.87A4.75,4.75,0,0,0,68,1.7,6,6,0,0,0,65,1H61.7V12Zm0-1.25H63V2.24h2a4.23,4.23,0,0,1,3.1,1.13,4.17,4.17,0,0,1,1.15,3.14,4.18,4.18,0,0,1-1.15,3.14A4.27,4.27,0,0,1,65,10.77Zm10.39,1.49a3.82,3.82,0,0,0,2.1-.55,4,4,0,0,0,1.38-1.51h0l-1.11-.54a2.54,2.54,0,0,1-2.32,1.42,2.74,2.74,0,0,1-1.24-.31,2.61,2.61,0,0,1-1-.92,3.19,3.19,0,0,1-.43-1.51H79a1.56,1.56,0,0,0,0-.4,4.64,4.64,0,0,0-.45-2.08,3.5,3.5,0,0,0-1.3-1.42,3.73,3.73,0,0,0-2-.52,3.53,3.53,0,0,0-2,.57A3.87,3.87,0,0,0,72,6a4.76,4.76,0,0,0-.47,2.1,4.52,4.52,0,0,0,.5,2.13,3.79,3.79,0,0,0,3.41,2Zm2.27-5H72.89a2.77,2.77,0,0,1,.84-1.56,2.17,2.17,0,0,1,1.56-.59,2.47,2.47,0,0,1,1.33.33,2.15,2.15,0,0,1,.78.84,2.73,2.73,0,0,1,.28,1ZM84,12l3.2-7.85H85.79l-2.46,6.31h0L80.87,4.17h-1.4L82.64,12Zm7.44.24a3.69,3.69,0,0,0,3.47-2.06h0l-1.1-.54a2.56,2.56,0,0,1-2.33,1.42,2.74,2.74,0,0,1-1.24-.31,2.51,2.51,0,0,1-1-.92,3.08,3.08,0,0,1-.43-1.51H95a1.59,1.59,0,0,0,0-.4,4.64,4.64,0,0,0-.45-2.08,3.43,3.43,0,0,0-1.3-1.42,3.7,3.7,0,0,0-2-.52,3.53,3.53,0,0,0-2,.57A3.77,3.77,0,0,0,88,6a4.62,4.62,0,0,0-.47,2.1,4.41,4.41,0,0,0,.5,2.13,3.74,3.74,0,0,0,1.39,1.48A3.84,3.84,0,0,0,91.4,12.26Zm2.26-5H88.87a2.89,2.89,0,0,1,.84-1.56,2.2,2.2,0,0,1,1.56-.59,2.45,2.45,0,0,1,1.33.33,2.08,2.08,0,0,1,.78.84,2.38,2.38,0,0,1,.28,1ZM97.77,12V1H96.46V12Zm5.38.24a4,4,0,0,0,2.08-.55,3.85,3.85,0,0,0,1.43-1.51,4.31,4.31,0,0,0,.52-2.11A4.31,4.31,0,0,0,106.66,6a3.82,3.82,0,0,0-1.43-1.5,4.14,4.14,0,0,0-4.16,0A3.92,3.92,0,0,0,99.63,6a4.42,4.42,0,0,0-.51,2.11,4.42,4.42,0,0,0,.51,2.11,3.9,3.9,0,0,0,3.52,2.06Zm0-1.18a2.64,2.64,0,0,1-2.36-1.4,3.12,3.12,0,0,1-.38-1.59,3.11,3.11,0,0,1,.38-1.58,2.64,2.64,0,0,1,1-1,2.71,2.71,0,0,1,1.36-.36,2.61,2.61,0,0,1,1.34.36,2.73,2.73,0,0,1,1,1,3.21,3.21,0,0,1,.37,1.58,3.22,3.22,0,0,1-.37,1.59,2.8,2.8,0,0,1-1,1A2.61,2.61,0,0,1,103.15,11.08Zm6.62,4.26v-3.4l-.06-1.08h.06a2.86,2.86,0,0,0,1.07,1,3.11,3.11,0,0,0,1.61.41,3.54,3.54,0,0,0,1.91-.54,3.79,3.79,0,0,0,1.35-1.48,4.57,4.57,0,0,0,.49-2.15A4.59,4.59,0,0,0,115.71,6a3.82,3.82,0,0,0-1.35-1.49,3.54,3.54,0,0,0-1.91-.54,3.21,3.21,0,0,0-1.61.41,2.83,2.83,0,0,0-1.07,1h-.06V4.17h-1.25V15.34Zm2.52-4.26a2.43,2.43,0,0,1-1.27-.37,2.71,2.71,0,0,1-1-1.05,3.4,3.4,0,0,1-.35-1.57,3.43,3.43,0,0,1,.35-1.57,2.62,2.62,0,0,1,1-1,2.38,2.38,0,0,1,2.55,0,2.58,2.58,0,0,1,1,1,3.32,3.32,0,0,1,.36,1.56,3.27,3.27,0,0,1-.36,1.56,2.67,2.67,0,0,1-1,1.06A2.44,2.44,0,0,1,112.29,11.08Zm8.83,1.18a3.69,3.69,0,0,0,3.47-2.06h0l-1.1-.54a2.56,2.56,0,0,1-2.33,1.42,2.74,2.74,0,0,1-1.24-.31,2.51,2.51,0,0,1-1-.92,3.08,3.08,0,0,1-.43-1.51h6.2a1.59,1.59,0,0,0,0-.4,4.64,4.64,0,0,0-.45-2.08A3.43,3.43,0,0,0,123,4.44a3.7,3.7,0,0,0-2-.52,3.53,3.53,0,0,0-2,.57A3.77,3.77,0,0,0,117.68,6a4.62,4.62,0,0,0-.47,2.1,4.41,4.41,0,0,0,.5,2.13,3.74,3.74,0,0,0,1.39,1.48A3.84,3.84,0,0,0,121.12,12.26Zm2.26-5h-4.79a2.89,2.89,0,0,1,.84-1.56A2.2,2.2,0,0,1,121,5.11a2.45,2.45,0,0,1,1.33.33,2.08,2.08,0,0,1,.78.84,2.38,2.38,0,0,1,.28,1ZM127.49,12V7.63a2.54,2.54,0,0,1,.29-1.18,2.38,2.38,0,0,1,.76-.87,1.88,1.88,0,0,1,1.05-.32,2.32,2.32,0,0,1,1.1.25h0V4.09a2.5,2.5,0,0,0-.92-.15,2.53,2.53,0,0,0-1.38.42,2.1,2.1,0,0,0-.9,1.07h-.06V4.17h-1.25V12Zm10.71.24a4.46,4.46,0,0,0,1.71-.34,3.17,3.17,0,0,0,1.37-1.06,2.84,2.84,0,0,0,.55-1.78A2.71,2.71,0,0,0,141,7a6,6,0,0,0-2.18-1.27h0l-.72-.25a5.1,5.1,0,0,1-1.54-.76,1.28,1.28,0,0,1-.51-1.05,1.48,1.48,0,0,1,.6-1.21A2.29,2.29,0,0,1,138.14,2a2.16,2.16,0,0,1,1.44.46,2.14,2.14,0,0,1,.7,1h0L141.51,3a3.24,3.24,0,0,0-.6-1,3.35,3.35,0,0,0-1.13-.86,4,4,0,0,0-3.38,0,3,3,0,0,0-1.2,1.07,2.62,2.62,0,0,0-.43,1.46,2.38,2.38,0,0,0,.74,1.87,5.53,5.53,0,0,0,1.9,1.1h0l.7.24a5.47,5.47,0,0,1,1.83.93,1.63,1.63,0,0,1,.57,1.27,1.66,1.66,0,0,1-.67,1.41,2.57,2.57,0,0,1-1.61.52,2.37,2.37,0,0,1-1.66-.64,3.1,3.1,0,0,1-1-1.61h0l-1.25.51a4,4,0,0,0,1.48,2.2A4,4,0,0,0,138.2,12.26Zm7.82-.12a3.32,3.32,0,0,0,.61-.05,2.14,2.14,0,0,0,.47-.15h0V10.66a1.57,1.57,0,0,1-.86.26,1,1,0,0,1-.85-.34,1.52,1.52,0,0,1-.25-.95h0V5.35h1.91V4.17h-1.91V2h-1.3V4.17h-1.37V5.35h1.37V10a2.57,2.57,0,0,0,.15.94,2,2,0,0,0,.46.68,2,2,0,0,0,.69.41A2.3,2.3,0,0,0,146,12.14Zm5.36.12a3,3,0,0,0,1.51-.4,2.57,2.57,0,0,0,1-1H154V12h1.25V4.17h-1.31V8.6a2.78,2.78,0,0,1-.28,1.2,2.33,2.33,0,0,1-.81.92,2,2,0,0,1-1.17.36,1.81,1.81,0,0,1-1.37-.53,2.27,2.27,0,0,1-.51-1.64h0V4.17h-1.31V9.11a3.34,3.34,0,0,0,.75,2.32A2.77,2.77,0,0,0,151.38,12.26Zm8.93,0a3.12,3.12,0,0,0,1.62-.41,2.94,2.94,0,0,0,1.07-1h.07V12h1.24V1H163V4.24l.07,1.1H163a2.9,2.9,0,0,0-1.07-1,3.22,3.22,0,0,0-1.62-.41,3.48,3.48,0,0,0-1.9.54A3.82,3.82,0,0,0,157.06,6a4.71,4.71,0,0,0-.49,2.14,4.69,4.69,0,0,0,.49,2.15,3.79,3.79,0,0,0,1.35,1.48A3.48,3.48,0,0,0,160.31,12.26Zm.15-1.18a2.43,2.43,0,0,1-1.27-.37,2.67,2.67,0,0,1-1-1.06,3.16,3.16,0,0,1-.37-1.56,3.21,3.21,0,0,1,.37-1.56,2.58,2.58,0,0,1,1-1,2.4,2.4,0,0,1,2.56,0,2.67,2.67,0,0,1,.95,1,3.2,3.2,0,0,1,.37,1.57,3.17,3.17,0,0,1-.37,1.57,2.77,2.77,0,0,1-.95,1.05A2.45,2.45,0,0,1,160.46,11.08Zm9.1,1.18a3.83,3.83,0,0,0,2.11-.55A4,4,0,0,0,173,10.2h0l-1.11-.54a2.53,2.53,0,0,1-2.32,1.42,2.74,2.74,0,0,1-1.24-.31,2.61,2.61,0,0,1-1-.92A3.19,3.19,0,0,1,167,8.34h6.21a1.59,1.59,0,0,0,0-.4,4.64,4.64,0,0,0-.45-2.08,3.43,3.43,0,0,0-1.3-1.42,3.73,3.73,0,0,0-2-.52,3.53,3.53,0,0,0-2,.57A3.77,3.77,0,0,0,166.13,6a4.62,4.62,0,0,0-.47,2.1,4.41,4.41,0,0,0,.5,2.13,3.67,3.67,0,0,0,1.39,1.48A3.81,3.81,0,0,0,169.56,12.26Zm2.27-5H167a2.77,2.77,0,0,1,.84-1.56,2.2,2.2,0,0,1,1.56-.59,2.45,2.45,0,0,1,1.33.33,2.08,2.08,0,0,1,.78.84,2.55,2.55,0,0,1,.28,1ZM175.94,12V7.6a2.72,2.72,0,0,1,.28-1.21,2.41,2.41,0,0,1,.77-.93,1.92,1.92,0,0,1,1.14-.35,2,2,0,0,1,1.43.49,2.09,2.09,0,0,1,.52,1.58h0V12h1.31V7a3.21,3.21,0,0,0-.75-2.24,2.8,2.8,0,0,0-2.16-.82,3,3,0,0,0-1.51.41,2.66,2.66,0,0,0-1,1h-.06V4.17h-1.25V12Zm9.85.12a3.32,3.32,0,0,0,.61-.05,2,2,0,0,0,.47-.15h0V10.66a1.54,1.54,0,0,1-.86.26,1.06,1.06,0,0,1-.85-.34,1.52,1.52,0,0,1-.24-.95h0V5.35h1.91V4.17h-1.91V2h-1.31V4.17h-1.37V5.35h1.37V10a2.57,2.57,0,0,0,.15.94,2.1,2.1,0,0,0,.46.68,2.14,2.14,0,0,0,.69.41A2.33,2.33,0,0,0,185.79,12.14Zm11.11.12a5.75,5.75,0,0,0,2.46-.53,5.41,5.41,0,0,0,1.89-1.44h0l-.95-.92A4.31,4.31,0,0,1,196.9,11a4.37,4.37,0,0,1-2.2-.57,4.09,4.09,0,0,1-1.59-1.58,4.58,4.58,0,0,1-.6-2.36,4.61,4.61,0,0,1,.6-2.37,4.09,4.09,0,0,1,1.59-1.58A4.47,4.47,0,0,1,196.9,2a4.06,4.06,0,0,1,1.72.35A4.25,4.25,0,0,1,200,3.46h0l.94-.91a5.17,5.17,0,0,0-1.78-1.33A5.36,5.36,0,0,0,196.9.75a5.64,5.64,0,0,0-2.91.76,5.37,5.37,0,0,0-2.05,2.07,5.78,5.78,0,0,0-.75,2.93,5.84,5.84,0,0,0,.75,2.93A5.37,5.37,0,0,0,194,11.51,5.73,5.73,0,0,0,196.9,12.26Zm7-.24V1h-1.31V12Zm4.69.24a3,3,0,0,0,1.5-.4,2.51,2.51,0,0,0,1-1h.07V12h1.24V4.17h-1.31V8.6a2.64,2.64,0,0,1-.28,1.2,2.38,2.38,0,0,1-.8.92,2,2,0,0,1-1.18.36,1.83,1.83,0,0,1-1.37-.53A2.27,2.27,0,0,1,207,8.91h0V4.17h-1.3V9.11a3.38,3.38,0,0,0,.74,2.32A2.78,2.78,0,0,0,208.61,12.26Zm9.66,0a3.51,3.51,0,0,0,1.91-.54,3.74,3.74,0,0,0,1.36-1.48A4.69,4.69,0,0,0,222,8.09,4.71,4.71,0,0,0,221.54,6a3.77,3.77,0,0,0-1.36-1.49,3.51,3.51,0,0,0-1.91-.54,3.17,3.17,0,0,0-1.6.41,2.76,2.76,0,0,0-1.07,1h-.07l.07-1.1V1h-1.31V12h1.24V10.86h.07a2.79,2.79,0,0,0,1.07,1A3.08,3.08,0,0,0,218.27,12.26Zm-.15-1.18a2.47,2.47,0,0,1-1.28-.37,2.62,2.62,0,0,1-1-1.05,3.28,3.28,0,0,1-.36-1.57,3.31,3.31,0,0,1,.36-1.57,2.52,2.52,0,0,1,1-1,2.4,2.4,0,0,1,2.56,0,2.58,2.58,0,0,1,1,1,3.32,3.32,0,0,1,.36,1.56,3.27,3.27,0,0,1-.36,1.56,2.67,2.67,0,0,1-1,1.06A2.47,2.47,0,0,1,218.12,11.08Zm8,1.18a4.14,4.14,0,0,0,1.57-.29,2.6,2.6,0,0,0,1.12-.84,2,2,0,0,0,.42-1.27,1.92,1.92,0,0,0-.58-1.41,3.84,3.84,0,0,0-1.74-.87h0l-1.14-.29a2.71,2.71,0,0,1-1-.44.87.87,0,0,1-.34-.7.89.89,0,0,1,.49-.76,2.1,2.1,0,0,1,1.13-.3,1.9,1.9,0,0,1,1.86,1h0L229,5.61a2.56,2.56,0,0,0-1.15-1.24,4,4,0,0,0-3.3-.17,2.58,2.58,0,0,0-1.08.79,1.87,1.87,0,0,0-.41,1.19,1.84,1.84,0,0,0,.6,1.43,3.37,3.37,0,0,0,1.54.79h0l.95.25a3.78,3.78,0,0,1,1.31.51.94.94,0,0,1,.42.79,1,1,0,0,1-.53.86,2.5,2.5,0,0,1-1.26.3,2.24,2.24,0,0,1-1.27-.39A2.38,2.38,0,0,1,224,9.63h0l-1.17.52a3.3,3.3,0,0,0,1.2,1.52A3.64,3.64,0,0,0,226.11,12.26Z"/><text class="cls-6" transform="translate(70.99 24.42)">A<tspan class="cls-7" x="6.2" y="0">j</tspan><tspan class="cls-8" x="8.4" y="0">a</tspan><tspan class="cls-9" x="12.94" y="0">y </tspan><tspan class="cls-10" x="19.63" y="0">K</tspan><tspan x="25.25" y="0">u</tspan><tspan class="cls-7" x="30.22" y="0">m</tspan><tspan x="37.79" y="0">ar</tspan><tspan class="cls-11" x="45.95" y="0"> </tspan><tspan class="cls-12" x="47.68" y="0">G</tspan><tspan x="54.56" y="0">a</tspan><tspan class="cls-13" x="59.19" y="0">r</tspan><tspan x="62.5" y="0">g </tspan><tspan class="cls-14" x="69.57" y="0">E</tspan><tspan class="cls-7" x="74.48" y="0">n</tspan><tspan x="79.41" y="0">gin</tspan><tspan class="cls-15" x="91.79" y="0">e</tspan><tspan x="96.64" y="0">eri</tspan><tspan class="cls-16" x="107.22" y="0">n</tspan><tspan x="112.14" y="0">g</tspan><tspan class="cls-11" x="117.31" y="0" xml:space="preserve"> C</tspan><tspan class="cls-7" x="125.22" y="0">o</tspan><tspan x="130.17" y="0">l</tspan><tspan class="cls-7" x="132.27" y="0">l</tspan><tspan class="cls-17" x="134.33" y="0">e</tspan><tspan class="cls-7" x="139.19" y="0">g</tspan><tspan x="144.31" y="0">e</tspan></text></g></g></svg>