<svg xmlns="http://www.w3.org/2000/svg" viewBox="0 0 202.48 27.24"><defs><style>.cls-1{fill:#ea4335;}.cls-2{fill:#4285f4;}.cls-3{fill:#fbbc04;}.cls-4{fill:#0f9d58;}.cls-5,.cls-6{fill:#676c72;}.cls-6{isolation:isolate;font-size:8.66px;font-family:ProductSans-Bold, Product Sans;font-weight:700;}.cls-7{letter-spacing:0em;}.cls-8{letter-spacing:-0.01em;}.cls-9{letter-spacing:-0.02em;}.cls-10{letter-spacing:0em;}.cls-11{letter-spacing:-0.02em;}.cls-12{letter-spacing:-0.03em;}.cls-13{letter-spacing:0em;}.cls-14{letter-spacing:-0.01em;}</style></defs><title>Logo_1</title><g id="Layer_2" data-name="Layer 2"><g id="Layer_1-2" data-name="Layer 1"><g id="Page-1"><g id="Group-2"><g id="Group"><path id="Path" class="cls-1" d="M7.34,8l5.3-3.1a2.59,2.59,0,0,0,.9-3.6,2.53,2.53,0,0,0-3.5-1L.94,5.64Z"/></g><g id="Group-2-2" data-name="Group"><path id="Path-2" data-name="Path" class="cls-2" d="M11.44,15a2.51,2.51,0,0,0,2.2-1.2,2.47,2.47,0,0,0-.9-3.4l-8.9-5a2.58,2.58,0,0,0-3.5.9,2.47,2.47,0,0,0,.9,3.4l8.9,5a2.77,2.77,0,0,0,1.3.3"/></g><g id="Group-3" data-name="Group"><path id="Path-3" data-name="Path" class="cls-3" d="M19.54,15a2.2,2.2,0,0,0,1.3-.4l9.1-5.3L23.64,7l-5.4,3.1a2.59,2.59,0,0,0-.9,3.6,2.31,2.31,0,0,0,2.2,1.3"/></g><g id="Group-4" data-name="Group"><path id="Path-4" data-name="Path" class="cls-4" d="M28.44,10a2.51,2.51,0,0,0,2.2-1.2,2.47,2.47,0,0,0-.9-3.4l-8.9-5a2.58,2.58,0,0,0-3.5.9,2.47,2.47,0,0,0,.9,3.4l8.9,5a2.77,2.77,0,0,0,1.3.3"/></g></g></g><path id="DeveloperStudentClubs" class="cls-5" d="M42.38,13a5.43,5.43,0,0,0,2.9-.7,5,5,0,0,0,1.9-1.9,6.1,6.1,0,0,0,.7-2.8,5.07,5.07,0,0,0-.7-2.8,5,5,0,0,0-1.9-1.9,5.43,5.43,0,0,0-2.9-.7h-3.2v10.7h3.2Zm0-1.2h-2V3.54h2a4.08,4.08,0,0,1,3,1.1,4.33,4.33,0,0,1,1.1,3.1,4.5,4.5,0,0,1-1.1,3.1,3.67,3.67,0,0,1-3,1Zm10.2,1.5a3.94,3.94,0,0,0,2-.5,3.74,3.74,0,0,0,1.3-1.5h0l-1.1-.5a2.54,2.54,0,0,1-2.3,1.4,2.66,2.66,0,0,1-1.2-.3,2.84,2.84,0,0,1-1-.9,2.41,2.41,0,0,1-.4-1.5h6v-.4a4.21,4.21,0,0,0-.4-2,3,3,0,0,0-1.3-1.4,3.83,3.83,0,0,0-1.9-.5,3.61,3.61,0,0,0-2,.6A3.74,3.74,0,0,0,49,7.34a4.55,4.55,0,0,0-.5,2,4.65,4.65,0,0,0,.5,2.1,3.16,3.16,0,0,0,1.4,1.4A5.85,5.85,0,0,0,52.58,13.34Zm2.2-4.9h-4.7a2.75,2.75,0,0,1,.8-1.5,2,2,0,0,1,1.5-.6,2.5,2.5,0,0,1,1.3.3,3,3,0,0,1,.8.8,5.39,5.39,0,0,1,.3,1Zm6.1,4.6L64,5.44h-1.3l-2.4,6.1h0l-2.4-6.1h-1.4l3.1,7.6Zm7.2.3a3.94,3.94,0,0,0,2-.5,3.74,3.74,0,0,0,1.3-1.5h0l-1.1-.5a2.54,2.54,0,0,1-2.3,1.4,2.66,2.66,0,0,1-1.2-.3,2.84,2.84,0,0,1-1-.9,2.41,2.41,0,0,1-.4-1.5h6v-.4a4.21,4.21,0,0,0-.4-2,3,3,0,0,0-1.3-1.4,3.83,3.83,0,0,0-1.9-.5,3.61,3.61,0,0,0-2,.6,3.74,3.74,0,0,0-1.3,1.5,4.55,4.55,0,0,0-.5,2,4.65,4.65,0,0,0,.5,2.1,3.16,3.16,0,0,0,1.4,1.4A6.83,6.83,0,0,0,68.08,13.34Zm2.2-4.9h-4.7a2.75,2.75,0,0,1,.8-1.5,2,2,0,0,1,1.5-.6,2.5,2.5,0,0,1,1.3.3,3,3,0,0,1,.8.8,2.24,2.24,0,0,1,.3,1Zm4.1,4.6V2.34h-1.3V13Zm5.2.3a4.23,4.23,0,0,0,2-.5,4,4,0,0,0,1.4-1.5,4.65,4.65,0,0,0,.5-2.1,5,5,0,0,0-.5-2.1,4,4,0,0,0-1.4-1.5,3.51,3.51,0,0,0-2-.5,4.55,4.55,0,0,0-2,.5,2.94,2.94,0,0,0-1.4,1.5,4.65,4.65,0,0,0-.5,2.1,5,5,0,0,0,.5,2.1,4,4,0,0,0,1.4,1.5A4.23,4.23,0,0,0,79.58,13.34Zm0-1.2a2,2,0,0,1-1.3-.4,3.18,3.18,0,0,1-1-1,3.71,3.71,0,0,1-.4-1.5,2.6,2.6,0,0,1,.4-1.5,2.41,2.41,0,0,1,1-1,2.84,2.84,0,0,1,1.3-.4,2,2,0,0,1,1.3.4,3.18,3.18,0,0,1,1,1,2.6,2.6,0,0,1,.4,1.5,2.6,2.6,0,0,1-.4,1.5,3.18,3.18,0,0,1-1,1A2,2,0,0,1,79.58,12.14Zm6.5,4.2V13l-.1-1.1h.1a3.18,3.18,0,0,0,1,1,2.93,2.93,0,0,0,1.6.4,4.14,4.14,0,0,0,1.9-.5,3.48,3.48,0,0,0,1.3-1.4,4.66,4.66,0,0,0,0-4.2,4.71,4.71,0,0,0-1.3-1.5,3.2,3.2,0,0,0-1.9-.5,2.93,2.93,0,0,0-1.6.4,2.4,2.4,0,0,0-1,1H86V5.54h-1.2v10.9h1.3Zm2.4-4.2a1.75,1.75,0,0,1-1.2-.4,4.3,4.3,0,0,1-.9-1,3.34,3.34,0,0,1-.3-1.5,3.34,3.34,0,0,1,.3-1.5,2.19,2.19,0,0,1,.9-1,2.84,2.84,0,0,1,1.2-.4,1.75,1.75,0,0,1,1.2.4,2.19,2.19,0,0,1,.9,1,3.71,3.71,0,0,1,.4,1.5,2.41,2.41,0,0,1-.4,1.5,2.19,2.19,0,0,1-.9,1A2.45,2.45,0,0,1,88.48,12.14Zm8.6,1.2a3.94,3.94,0,0,0,2-.5,3.74,3.74,0,0,0,1.3-1.5h0l-1.1-.5a2.54,2.54,0,0,1-2.3,1.4,2.66,2.66,0,0,1-1.2-.3,2.84,2.84,0,0,1-1-.9,2.41,2.41,0,0,1-.4-1.5h6v-.4a4.21,4.21,0,0,0-.4-2,3,3,0,0,0-1.3-1.4,3.94,3.94,0,0,0-2-.5,3.61,3.61,0,0,0-2,.6,3.74,3.74,0,0,0-1.3,1.5,4.55,4.55,0,0,0-.5,2,4.65,4.65,0,0,0,.5,2.1,3.16,3.16,0,0,0,1.4,1.4A7.36,7.36,0,0,0,97.08,13.34Zm2.2-4.9h-4.7a2.75,2.75,0,0,1,.8-1.5,2,2,0,0,1,1.5-.6,2.5,2.5,0,0,1,1.3.3,3,3,0,0,1,.8.8,2.24,2.24,0,0,1,.3,1Zm4,4.6V8.74a2,2,0,0,1,.3-1.1,1.85,1.85,0,0,1,.7-.8,1.69,1.69,0,0,1,1-.3,3.59,3.59,0,0,1,1.1.2h0V5.34a2.39,2.39,0,0,0-.9-.2,2,2,0,0,0-1.3.4,2.84,2.84,0,0,0-.9,1h0V5.34h-1.2v7.6h1.2Zm10.5.3a5.08,5.08,0,0,0,1.7-.3,3.25,3.25,0,0,0,1.3-1,2.86,2.86,0,0,0,.5-1.7,2.63,2.63,0,0,0-.8-2,5.28,5.28,0,0,0-2.1-1.2h0l-.7-.2a5.29,5.29,0,0,1-1.5-.7,1.23,1.23,0,0,1-.5-1,1.43,1.43,0,0,1,.6-1.2,2.39,2.39,0,0,1,1.4-.5,2.89,2.89,0,0,1,1.4.4,1.69,1.69,0,0,1,.7,1h0l1.2-.5a3.74,3.74,0,0,0-.6-1,3.13,3.13,0,0,0-1.1-.8,4.15,4.15,0,0,0-1.6-.3,3.29,3.29,0,0,0-1.7.4,4,4,0,0,0-1.2,1,2.3,2.3,0,0,0-.4,1.4,2.14,2.14,0,0,0,.7,1.8A6.79,6.79,0,0,0,113,8h0l.7.2a7.45,7.45,0,0,1,1.8.9,1.35,1.35,0,0,1,.5,1.2,1.82,1.82,0,0,1-.6,1.4,2.77,2.77,0,0,1-1.6.5,2.27,2.27,0,0,1-1.6-.6,2.36,2.36,0,0,1-.9-1.6h0l-1.2.5a3.93,3.93,0,0,0,1.4,2.1A3.69,3.69,0,0,0,113.78,13.34Zm7.6-.2h.6c.2,0,.3-.1.5-.2h0v-1.2a1.33,1.33,0,0,1-.8.3,1,1,0,0,1-.8-.3c-.2-.2-.2-.5-.2-.9h0V6.64h1.9V5.44h-1.9V3.24h-1.4v2.2H118v1.2h1.3v4.5c0,.4,0,.7.2.9a4.35,4.35,0,0,0,.4.7,1.61,1.61,0,0,0,.7.4Zm5.2.2a2.82,2.82,0,0,0,1.5-.4,2.4,2.4,0,0,0,1-1h.1V13h1.2V5.44h-1.3v4.3a2.66,2.66,0,0,1-.3,1.2,1.76,1.76,0,0,1-.8.9,2,2,0,0,1-1.1.3,1.73,1.73,0,0,1-1.3-.5,2.35,2.35,0,0,1-.5-1.6h0V5.44h-1.3v4.8a3.33,3.33,0,0,0,.7,2.3A2.86,2.86,0,0,0,126.58,13.34Zm8.7,0a2.93,2.93,0,0,0,1.6-.4,2.4,2.4,0,0,0,1-1h.1V13h1.2V2.34h-1.3v3.2l.1,1.1h-.1a3.18,3.18,0,0,0-1-1,2.73,2.73,0,0,0-1.6-.4,4.14,4.14,0,0,0-1.9.5,2.78,2.78,0,0,0-1.3,1.5,4.66,4.66,0,0,0,0,4.2,3.53,3.53,0,0,0,1.3,1.4A4.14,4.14,0,0,0,135.28,13.34Zm.2-1.2a1.75,1.75,0,0,1-1.2-.4,2.19,2.19,0,0,1-.9-1,3.71,3.71,0,0,1-.4-1.5,2.41,2.41,0,0,1,.4-1.5,2.19,2.19,0,0,1,.9-1,2.84,2.84,0,0,1,1.2-.4,2,2,0,0,1,1.3.4,2.19,2.19,0,0,1,.9,1,3.31,3.31,0,0,1,.4,1.5,2.41,2.41,0,0,1-.4,1.5c-.3.4-.5.8-.9,1A3.26,3.26,0,0,1,135.48,12.14Zm8.8,1.2a3.94,3.94,0,0,0,2-.5,3.74,3.74,0,0,0,1.3-1.5h0l-1.1-.5a2.54,2.54,0,0,1-2.3,1.4,2.66,2.66,0,0,1-1.2-.3,2.84,2.84,0,0,1-1-.9,2.41,2.41,0,0,1-.4-1.5h6v-.4a4.21,4.21,0,0,0-.4-2,3,3,0,0,0-1.3-1.4,3.94,3.94,0,0,0-2-.5,3.08,3.08,0,0,0-1.9.6,3.74,3.74,0,0,0-1.3,1.5,4.55,4.55,0,0,0-.5,2,4.65,4.65,0,0,0,.5,2.1,3.16,3.16,0,0,0,1.4,1.4A6.83,6.83,0,0,0,144.28,13.34Zm2.2-4.9h-4.7a2.75,2.75,0,0,1,.8-1.5,2,2,0,0,1,1.5-.6,2.5,2.5,0,0,1,1.3.3,3,3,0,0,1,.8.8,2.24,2.24,0,0,1,.3,1Zm4.1,4.6V8.74a2.66,2.66,0,0,1,.3-1.2,1.76,1.76,0,0,1,.8-.9,2,2,0,0,1,1.1-.3,2,2,0,0,1,1.4.5,2.07,2.07,0,0,1,.5,1.5h0V13H156V8.14a3.23,3.23,0,0,0-.7-2.2,2.52,2.52,0,0,0-2.1-.8,2.82,2.82,0,0,0-1.5.4,2.4,2.4,0,0,0-1,1h-.1V5.44h-1.3V13Zm9.6.1h.6c.2,0,.3-.1.5-.2h0v-1.2a1.33,1.33,0,0,1-.8.3,1,1,0,0,1-.8-.3c-.2-.2-.2-.5-.2-.9h0V6.64h1.9V5.44h-2.1V3.24H158v2.2h-1.3v1.2H158v4.5a2.22,2.22,0,0,0,.1.9,1.79,1.79,0,0,0,.5.7,1.61,1.61,0,0,0,.7.4Zm10.8.2a6,6,0,0,0,2.4-.5,4.89,4.89,0,0,0,1.8-1.4h0l-.9-.9a4.07,4.07,0,0,1-3.3,1.6,4.65,4.65,0,0,1-2.1-.5,4.63,4.63,0,0,1-1.6-1.5,4.38,4.38,0,0,1-.6-2.3,4.38,4.38,0,0,1,.6-2.3,3.32,3.32,0,0,1,1.6-1.5,3.84,3.84,0,0,1,2.1-.5,4.67,4.67,0,0,1,1.7.3,3.34,3.34,0,0,1,1.3,1.1h0l.9-.9a5.15,5.15,0,0,0-1.7-1.3,5.45,5.45,0,0,0-2.2-.5,5.3,5.3,0,0,0-2.8.7,5.36,5.36,0,0,0-2.7,4.9,5.66,5.66,0,0,0,.7,2.9,5.48,5.48,0,0,0,2,2A7.71,7.71,0,0,0,171,13.34Zm6.8-.3V2.34h-1.3V13Zm4.6.3a2.82,2.82,0,0,0,1.5-.4,2.4,2.4,0,0,0,1-1h.1V13h1.2V5.44h-1.3v4.3a2.66,2.66,0,0,1-.3,1.2,1.76,1.76,0,0,1-.8.9,2,2,0,0,1-1.1.3,1.73,1.73,0,0,1-1.3-.5,2.35,2.35,0,0,1-.5-1.6h0V5.44h-1.3v4.8a3.33,3.33,0,0,0,.7,2.3A2.86,2.86,0,0,0,182.38,13.34Zm9.4,0a4.14,4.14,0,0,0,1.9-.5,3.48,3.48,0,0,0,1.3-1.4,4.66,4.66,0,0,0,0-4.2,4.71,4.71,0,0,0-1.3-1.5,3.2,3.2,0,0,0-1.9-.5,2.93,2.93,0,0,0-1.6.4,2.4,2.4,0,0,0-1,1h-.1l.1-1.1V2.34h-1.3V13h1.2v-1.1h.1a3.18,3.18,0,0,0,1,1A4.19,4.19,0,0,0,191.78,13.34Zm-.1-1.2a1.75,1.75,0,0,1-1.2-.4,2.19,2.19,0,0,1-.9-1,3.34,3.34,0,0,1-.3-1.5,3.34,3.34,0,0,1,.3-1.5,2.19,2.19,0,0,1,.9-1,2.84,2.84,0,0,1,1.2-.4,1.75,1.75,0,0,1,1.2.4,2.19,2.19,0,0,1,.9,1,3.71,3.71,0,0,1,.4,1.5,2.41,2.41,0,0,1-.4,1.5,2.19,2.19,0,0,1-.9,1A1.92,1.92,0,0,1,191.68,12.14Zm7.8,1.2A3.34,3.34,0,0,0,201,13a3.13,3.13,0,0,0,1.1-.8,1.92,1.92,0,0,0,.4-1.2,2,2,0,0,0-.6-1.4,2.72,2.72,0,0,0-1.7-.8h0l-1.1-.3a5.13,5.13,0,0,1-1-.4.91.91,0,0,1-.3-.7c0-.3.2-.5.5-.7a2,2,0,0,1,1.1-.3,1.73,1.73,0,0,1,1.8,1h0l1.1-.5a2.54,2.54,0,0,0-1.1-1.2,3.42,3.42,0,0,0-1.8-.4,3.19,3.19,0,0,0-1.4.3,2.84,2.84,0,0,0-1.1.8,1.59,1.59,0,0,0-.4,1.2,1.82,1.82,0,0,0,.6,1.4,3.61,3.61,0,0,0,1.5.8h0l.9.2a3.2,3.2,0,0,1,1.3.5.91.91,0,0,1,.4.8.89.89,0,0,1-.5.8,2.38,2.38,0,0,1-1.2.3,1.59,1.59,0,0,1-1.2-.4,2.26,2.26,0,0,1-.8-1.1h0l-1.1.5a2.89,2.89,0,0,0,1.2,1.5A2.84,2.84,0,0,0,199.48,13.34Z"/><text class="cls-6" transform="translate(39.18 24.78)">A<tspan class="cls-7" x="6.2" y="0">j</tspan><tspan class="cls-8" x="8.4" y="0">a</tspan><tspan x="12.94" y="0">y </tspan><tspan class="cls-9" x="19.63" y="0">K</tspan><tspan x="25.25" y="0">u</tspan><tspan class="cls-7" x="30.22" y="0">m</tspan><tspan class="cls-10" x="37.79" y="0">ar</tspan><tspan class="cls-9" x="45.95" y="0"> </tspan><tspan class="cls-11" x="47.68" y="0">G</tspan><tspan x="54.56" y="0">a</tspan><tspan class="cls-12" x="59.19" y="0">r</tspan><tspan x="62.5" y="0">g </tspan><tspan class="cls-8" x="69.57" y="0">E</tspan><tspan class="cls-7" x="74.48" y="0">n</tspan><tspan x="79.41" y="0">gin</tspan><tspan class="cls-13" x="91.79" y="0">e</tspan><tspan x="96.64" y="0">eri</tspan><tspan class="cls-7" x="107.22" y="0">n</tspan><tspan x="112.15" y="0">g</tspan><tspan class="cls-9" x="117.31" y="0" xml:space="preserve"> C</tspan><tspan class="cls-14" x="125.22" y="0">o</tspan><tspan x="130.17" y="0">l</tspan><tspan class="cls-7" x="132.27" y="0">l</tspan><tspan class="cls-13" x="134.33" y="0">e</tspan><tspan class="cls-7" x="139.19" y="0">g</tspan><tspan class="cls-10" x="144.31" y="0">e</tspan></text></g></g></svg>