<svg xmlns="http://www.w3.org/2000/svg" viewBox="0 0 384 481"><g fill="none" fill-rule="evenodd" transform="translate(1 .8006)"><path d="m44.235 160.3024 142.529-141.543m-47.796 236.268 142.094-141.976" stroke="#202124" stroke-dasharray="3 2.25" stroke-width=".75"/><path d="m44.36 255.4164h94.273v-94.264h-94.272zm94.273 0h94.272v-94.264h-94.272zm-94.273 0 143.173-142.938" stroke="#5f6368" stroke-width=".75"/><path d="m286.072.85440005s35.28 13.97599995-15.685 58.29699995c0 0-103.493 74.997-26.242-30.737 26.283-35.97299995 41.927-27.55999995 41.927-27.55999995" fill="#e44335" fill-rule="nonzero"/><path d="m186.763 113.0244h94.272v-94.264h-94.272z" stroke="#202124" stroke-width=".75"/><path d="m298.03 437.2124h-170.597" stroke="#5f6368" stroke-width=".75"/><path d="m85.043 478.9224h-84.956v-84.719" stroke="#b7b7b7" stroke-width=".72"/><path d="m127.521 437.2124v-84.718h84.956v84.718" stroke="#5f6368" stroke-width=".75"/><g transform="translate(0 352.1994)"><path d="m127.433 84.777-42.477 42.36m-84.956-84.719 42.477-42.36" stroke="#202124" stroke-dasharray="3 2.25"/><path d="m0 127.373h84.956v-84.718h-84.956z" stroke="#5f6368"/></g><g stroke-width=".75"><path d="m339.997 394.2694-42.477 42.358m-84.956-84.718 42.477-42.36" stroke="#202124" stroke-dasharray="3 2.25"/><path d="m340.336 351.9094h42.095m-84.841 42.534v-42.147h-42.69" stroke="#5f6368"/><path d="m42.566 437.1264h84.955v-84.72h-84.955z" stroke="#202124"/></g><path d="m64.177 391.3024c1.055-6.393 13.084-16.3 24.785-14.293 11.703 2.007 15.405 12.92 12.89 20.933-2.514 8.014-11.327 16.814-25.623 11.827-12.073-4.212-12.892-13.371-12.052-18.467" fill="#f6b705" fill-rule="nonzero"/><path d="m323.165 345.1954c-.055289-.754179-.13868-1.506035-.25-2.254-.923-6.258-5.388-8.759-11.515-9.082-3.456-.183-8.685-.276-8.764 4.399-.092 5.542 4.792 12.256 7.939 16.527 1.499 2.036 3.68 4.861 6.385 5.28 3.753.579 4.86-4.007 5.6-6.87.673-2.598.802-5.333.605-8" fill="#34a353" fill-rule="nonzero"/><path d="m255.041 394.2684h84.956v-84.719h-84.956z" stroke="#202124" stroke-width=".75"/></g></svg>