<svg xmlns="http://www.w3.org/2000/svg" width="559.941" height="343.685" viewBox="0 0 559.941 343.685">
  <g id="OBJECTS" transform="translate(-97.936 -92.857)">
    <path id="Path_460" data-name="Path 460" d="M127.412,350.888c4.731,6.126-2.386,16.271,2.342,22.4,2.614,3.39,7.76,3.828,10.63,7,4.5,4.976,1.231,13.8,5.507,18.969,4.373,5.285,14.11,3.653,17.806,9.432a9.423,9.423,0,0,1,1.3,3.672h29.322l-.549-.739c-2.236-3.023-4.4-6.262-5.051-9.965-.419-2.4-.17-4.888-.569-7.3-.535-3.231-2.655-3.9-4.151-6.269-1.291-2.046-1.22-5.081-2.442-7.329a17.639,17.639,0,0,0-12.1-9.027c-3.054-.539-6.442-.322-8.938-2.162-3.488-2.571-3.658-8.009-6.969-10.8-2.976-2.51-7.458-2.069-10.929-3.832-2.666-1.355-4.516-3.9-5.982-6.508s-2.67-5.389-4.543-7.72-4.614-4.211-7.6-4.139-5.953,2.709-5.582,5.676C119.42,346.37,124.876,347.6,127.412,350.888Z" fill="#e9e9f2"/>
    <path id="Path_461" data-name="Path 461" d="M174.6,406.834c-5.752-10.5-6.627-22.227-18.433-28.082-4.847-2.4-9.81-4.215-13.795-8.024a27.847,27.847,0,0,1-7.7-13.222c-1.365-5.317-1.9-13.7-8.66-15.06" fill="rgba(0,0,0,0)" stroke="#fafafc" stroke-linecap="round" stroke-linejoin="round" stroke-width="1"/>
    <path id="Path_462" data-name="Path 462" d="M127.441,392.643c1.241,2.039,1.563,4.483,2.1,6.809s1.427,4.754,3.378,6.128c3.821,2.691,9.733.115,13.466,2.927a9.8,9.8,0,0,1,2.736,3.859h18.647a9.825,9.825,0,0,0-3.958-6.552c-2.357-1.609-5.354-2.1-7.653-3.791-4.67-3.436-5.255-10.835-10.245-13.787-4.551-2.692-11.011-.538-15.2-3.771-1.783-1.379-2.8-3.5-4.229-5.246s-3.733-3.192-5.853-2.425c-2.155.78-2.99,3.592-2.311,5.78s2.445,3.85,4.227,5.291S126.249,390.686,127.441,392.643Z" fill="#f0f0f6"/>
    <path id="Path_463" data-name="Path 463" d="M151.862,406.845C149,400,141,400,135,396c-3-2-2-7-5-9s-7-2-7.937-5.911" fill="rgba(0,0,0,0)" stroke="#fafafc" stroke-linecap="round" stroke-linejoin="round" stroke-width="1"/>
    <path id="Path_464" data-name="Path 464" d="M151.37,335.132a1.633,1.633,0,0,1,1.339-.68,5.29,5.29,0,0,1,3.051,1.67c-.173-.374-.329-.754-.5-1.131-.639-.621-3.416-3.436-3.009-5.067a1.355,1.355,0,0,1,1.038-.98,1.642,1.642,0,0,1,1.522.27c1.358,1.084,1.307,4.509,1.272,5.351.231.519.459,1.039.7,1.553-.071-1.452.031-3.032.71-3.656a1.189,1.189,0,0,1,1.164-.259,1.379,1.379,0,0,1,.951.824c.65,1.548-1.018,4.816-1.531,5.758q1.1,2.178,2.3,4.3c-.127-1.96-.093-4.584.879-5.479a1.3,1.3,0,0,1,1.212-.312,1.39,1.39,0,0,1,1,.807c.79,1.742-1.282,5.908-1.877,7.04q.919,1.537,1.9,3.04c.129-2.043.522-5.068,1.721-5.776a1.272,1.272,0,0,1,1.31.019,1.668,1.668,0,0,1,.857,1.18c.367,1.89-1.927,5.072-2.819,6.221,1.254,1.857,2.579,3.664,3.954,5.434-.325-2.519-.663-6.9.7-8.143a1.477,1.477,0,0,1,1.458-.315,1.848,1.848,0,0,1,1.233,1.072c1.024,2.324-1.447,7.615-2.123,8.983q1.491,1.842,3.071,3.61c-.166-2.223-.26-6.279,1.119-7.452a1.539,1.539,0,0,1,1.486-.285,1.72,1.72,0,0,1,1.171,1.073c.806,2.138-1.817,6.684-2.6,7.973,1.473,1.6,3,3.142,4.576,4.643-.537-2.61-1.344-7.688.133-9.143a1.6,1.6,0,0,1,1.629-.37,2.157,2.157,0,0,1,1.463,1.236c1.175,2.54-1.256,8.186-1.881,9.558,1.364,1.255,2.773,2.462,4.2,3.641-.5-2.694-1.353-8.546.294-10.163a1.659,1.659,0,0,1,1.633-.407,2.085,2.085,0,0,1,1.45,1.178c1.262,2.624-1.406,8.9-2.093,10.434a99.063,99.063,0,0,0,10.717,7.45l-.475.793a99.93,99.93,0,0,1-10.874-7.567,32.781,32.781,0,0,1-7.651,2.36,4.425,4.425,0,0,1-2.837-.338,1.673,1.673,0,0,1-.742-1.5,2.037,2.037,0,0,1,.824-1.629c1.777-1.358,6.136-.78,8.693-.285q-1.95-1.625-3.821-3.339a33.51,33.51,0,0,1-5.534,1.266c-1.742.212-3.409.166-4.25-.536a1.747,1.747,0,0,1-.587-1.682,2.093,2.093,0,0,1,1.079-1.6c1.719-.958,5.123-.048,7.4.75q-2.1-2.034-4.079-4.18a41.8,41.8,0,0,1-4.419.8c-2.393.291-5.013.328-6.12-.638a1.707,1.707,0,0,1-.578-1.538,1.813,1.813,0,0,1,.912-1.42c1.851-1.081,6.219.237,8.737,1.151q-1.434-1.627-2.8-3.311c-1.528.06-8.305.206-9.839-1.843a1.692,1.692,0,0,1-.223-1.639,1.85,1.85,0,0,1,1.228-1.2c1.737-.549,4.817,1,6.971,2.3-1.148-1.509-2.265-3.04-3.328-4.61-1.361.148-6.982.651-8.229-.937a1.3,1.3,0,0,1-.174-1.321,1.664,1.664,0,0,1,1.047-1.023c1.6-.571,4.551.747,6.3,1.661q-1.014-1.561-1.971-3.158c-1.528-.065-6.661-.408-7.541-2.083a1.315,1.315,0,0,1,.119-1.393,1.849,1.849,0,0,1,1.364-.857l.014,0c1.376-.167,3.23.916,4.632,1.934-.742-1.322-1.447-2.665-2.13-4.02-1.3-.229-5.468-1.083-6.116-2.707A1.335,1.335,0,0,1,151.37,335.132Z" fill="#e1e1ed"/>
    <path id="Path_465" data-name="Path 465" d="M148.158,227.934a1.627,1.627,0,0,1,1.338-.679,5.284,5.284,0,0,1,3.051,1.67c-.172-.374-.328-.755-.5-1.131-.64-.622-3.416-3.436-3.01-5.067a1.353,1.353,0,0,1,1.039-.98,1.64,1.64,0,0,1,1.521.269c1.359,1.085,1.307,4.51,1.273,5.352.231.518.459,1.038.7,1.552-.072-1.452.03-3.032.71-3.656a1.189,1.189,0,0,1,1.163-.259,1.382,1.382,0,0,1,.952.825c.649,1.548-1.019,4.815-1.532,5.757q1.1,2.179,2.3,4.3c-.127-1.96-.092-4.583.88-5.479a1.3,1.3,0,0,1,1.211-.311,1.385,1.385,0,0,1,1,.807c.791,1.741-1.281,5.907-1.877,7.039q.921,1.539,1.9,3.041c.13-2.043.523-5.069,1.722-5.776a1.266,1.266,0,0,1,1.309.019,1.659,1.659,0,0,1,.857,1.179c.368,1.891-1.926,5.072-2.819,6.222,1.255,1.856,2.579,3.664,3.954,5.433-.325-2.519-.663-6.9.7-8.143a1.475,1.475,0,0,1,1.457-.315,1.843,1.843,0,0,1,1.233,1.072c1.025,2.324-1.447,7.616-2.123,8.983q1.492,1.844,3.072,3.611c-.166-2.224-.261-6.28,1.118-7.452a1.543,1.543,0,0,1,1.486-.286,1.721,1.721,0,0,1,1.171,1.074c.807,2.137-1.817,6.684-2.6,7.972,1.473,1.6,3,3.142,4.577,4.643-.537-2.61-1.345-7.687.132-9.142a1.6,1.6,0,0,1,1.629-.371,2.161,2.161,0,0,1,1.464,1.236c1.174,2.54-1.257,8.186-1.882,9.558,1.365,1.255,2.773,2.462,4.205,3.641-.5-2.694-1.353-8.546.294-10.163a1.662,1.662,0,0,1,1.633-.407,2.081,2.081,0,0,1,1.45,1.179c1.262,2.623-1.406,8.9-2.093,10.433a98.883,98.883,0,0,0,10.717,7.45l-.475.793a100.12,100.12,0,0,1-10.874-7.567,32.7,32.7,0,0,1-7.65,2.36,4.424,4.424,0,0,1-2.837-.337,1.669,1.669,0,0,1-.742-1.5,2.034,2.034,0,0,1,.824-1.629c1.777-1.358,6.136-.779,8.693-.285q-1.95-1.624-3.821-3.338a33.559,33.559,0,0,1-5.534,1.265c-1.743.212-3.41.166-4.25-.536a1.749,1.749,0,0,1-.588-1.681,2.1,2.1,0,0,1,1.08-1.605c1.718-.957,5.123-.048,7.4.75q-2.1-2.033-4.079-4.18a41.617,41.617,0,0,1-4.42.8c-2.392.292-5.013.329-6.119-.638a1.7,1.7,0,0,1-.578-1.538,1.813,1.813,0,0,1,.912-1.42c1.85-1.08,6.219.238,8.736,1.151q-1.433-1.626-2.8-3.311c-1.527.06-8.3.207-9.839-1.842a1.694,1.694,0,0,1-.223-1.64,1.852,1.852,0,0,1,1.229-1.2c1.737-.55,4.816,1,6.971,2.3-1.148-1.508-2.266-3.04-3.329-4.61-1.361.148-6.982.651-8.229-.936a1.307,1.307,0,0,1-.174-1.321,1.665,1.665,0,0,1,1.048-1.023c1.6-.571,4.55.746,6.3,1.66q-1.012-1.562-1.971-3.158c-1.527-.065-6.661-.407-7.54-2.082a1.314,1.314,0,0,1,.118-1.393,1.85,1.85,0,0,1,1.364-.858h.015c1.375-.168,3.23.916,4.632,1.934-.743-1.322-1.448-2.666-2.13-4.021-1.3-.229-5.468-1.082-6.117-2.707A1.338,1.338,0,0,1,148.158,227.934Z" fill="#f0f0f6"/>
    <ellipse id="Ellipse_6" data-name="Ellipse 6" cx="277.064" cy="11.521" rx="277.064" ry="11.521" transform="translate(97.936 413.5)" fill="#e8e8f1"/>
    <g id="Group_459" data-name="Group 459">
      <path id="Rectangle_242" data-name="Rectangle 242" d="M10,0H397.151a10,10,0,0,1,10,10V266.974a0,0,0,0,1,0,0H0a0,0,0,0,1,0,0V10A10,10,0,0,1,10,0Z" transform="translate(171.425 139.253)" fill="#122030"/>
      <rect id="Rectangle_243" data-name="Rectangle 243" width="240.975" height="387.15" transform="translate(568.575 149.253) rotate(90)" fill="#2356a7"/>
      <path id="Path_466" data-name="Path 466" d="M479.026,149.253,238.051,390.228h-31.5L447.521,149.253Zm-297.6,71.5v96.4l167.9-167.9h-96.4Zm387.15,52.4v-96.4L355.094,390.228h96.4Zm-53.261-123.9L274.34,390.228H288.4L529.374,149.253Z" fill="#2e5eab"/>
      <path id="Rectangle_244" data-name="Rectangle 244" d="M0,0H496.622a0,0,0,0,1,0,0V7.737a10,10,0,0,1-10,10H10a10,10,0,0,1-10-10V0A0,0,0,0,1,0,0Z" transform="translate(126.689 406.227)" fill="#003b68"/>
      <path id="Rectangle_245" data-name="Rectangle 245" d="M0,0H107.807a0,0,0,0,1,0,0V1.68a2.171,2.171,0,0,1-2.171,2.171H2.171A2.171,2.171,0,0,1,0,1.679V0A0,0,0,0,1,0,0Z" transform="translate(321.096 406.227)" fill="#003452"/>
    </g>
    <g id="Group_479" data-name="Group 479">
      <g id="Group_475" data-name="Group 475">
        <g id="Group_472" data-name="Group 472">
          <g id="Group_471" data-name="Group 471">
            <g id="Group_470" data-name="Group 470">
              <g id="Group_460" data-name="Group 460">
                <path id="Path_467" data-name="Path 467" d="M257.625,277.12l-10.68,4.7s16.6,17.187,26.6,15.917,12.264-13.248,12.264-13.248l-7.018-5.16Z" fill="#7988f3"/>
              </g>
              <circle id="Ellipse_7" data-name="Ellipse 7" cx="9.234" cy="9.234" r="9.234" transform="translate(288.538 220.531)" fill="#122030"/>
              <g id="Group_462" data-name="Group 462">
                <g id="Group_461" data-name="Group 461">
                  <path id="Path_468" data-name="Path 468" d="M256.8,281.176l-4.423-31.288s-12.343,3.738-12.931-6.255c-.524-8.9,9.155-9.221,13.64-4.879,0,0-7.195-31.29,19.706-32.756s25.8,35.263,25.567,44.153c-.4,15.658-11.911,22.752-20.06,23.229l.269,9.619s.332,8.423-7.571,8.446C260.463,291.476,256.8,281.176,256.8,281.176Z" fill="#f7969d"/>
                </g>
              </g>
              <path id="Path_469" data-name="Path 469" d="M278.351,229.765c0,1.294-2.445,2.343-5.462,2.343s-5.461-1.049-5.461-2.343,2.445-2.344,5.461-2.344S278.351,228.471,278.351,229.765Z" fill="#122030"/>
              <path id="Path_470" data-name="Path 470" d="M294.79,228.826c0,1.294-2.445,2.343-5.461,2.343s-5.462-1.049-5.462-2.343,2.445-2.344,5.462-2.344S294.79,227.532,294.79,228.826Z" fill="#122030"/>
              <g id="Group_463" data-name="Group 463">
                <path id="Path_471" data-name="Path 471" d="M279.876,248.663a.656.656,0,0,0,.166.007,4.215,4.215,0,0,0,3.812-4.778l-.948-6.815a.661.661,0,1,0-1.31.181l.948,6.815a2.889,2.889,0,0,1-2.615,3.278.662.662,0,0,0-.053,1.312Z" fill="#122030"/>
              </g>
              <g id="Group_465" data-name="Group 465">
                <g id="Group_464" data-name="Group 464">
                  <path id="Path_472" data-name="Path 472" d="M270.178,239.216a2.883,2.883,0,1,0,3.348-2.326A2.884,2.884,0,0,0,270.178,239.216Z" fill="#122030"/>
                </g>
              </g>
              <g id="Group_467" data-name="Group 467">
                <g id="Group_466" data-name="Group 466">
                  <path id="Path_473" data-name="Path 473" d="M285.066,238.488a2.883,2.883,0,1,0,3.347-2.326A2.882,2.882,0,0,0,285.066,238.488Z" fill="#122030"/>
                </g>
              </g>
              <g id="Group_468" data-name="Group 468">
                <path id="Path_474" data-name="Path 474" d="M280.582,253.385c.245.041.491.072.737.1a.662.662,0,1,0,.125-1.318,9.319,9.319,0,0,1-5.89-2.913.662.662,0,0,0-.973.9A10.657,10.657,0,0,0,280.582,253.385Z" fill="#122030"/>
              </g>
              <g id="Group_469" data-name="Group 469">
                <path id="Path_475" data-name="Path 475" d="M250.506,245.612a.738.738,0,0,0,.142.008.662.662,0,0,0,.629-.693,5.569,5.569,0,0,0-7.663-4.89.662.662,0,0,0,.5,1.227,4.242,4.242,0,0,1,5.842,3.727A.663.663,0,0,0,250.506,245.612Z" fill="#122030"/>
              </g>
            </g>
          </g>
        </g>
        <path id="Path_476" data-name="Path 476" d="M196.054,390.22H298.623c.114-.9.184-1.431.184-1.431s.137.552.439,1.431h33.893c1.657-5.8,1.288-12.768.872-19.518-.844-13.708-12.506-71.488-16.378-75.77-4.194-4.639-33.645-15.769-33.645-15.769l.407-7.27a37.708,37.708,0,0,1-6.1,1.487c-7.407.438-11.664-2.676-11.664-2.676H254.791a2.474,2.474,0,0,0-2.488,2.65l.358,5s-14.223,2.59-22.684,6.5-14.285,7.842-17.143,10.92c-3.661,3.943-19.431,67.019-19.888,77.175C192.616,380.256,196.355,389.391,196.054,390.22Z" fill="#7fc89b"/>
        <g id="Group_473" data-name="Group 473">
          <path id="Path_477" data-name="Path 477" d="M308.6,334l-.05,0a.7.7,0,0,1-.649-.747l2.089-29.668a.7.7,0,0,1,1.4.1l-2.089,29.668A.7.7,0,0,1,308.6,334Z" fill="#57a17f"/>
        </g>
        <path id="Path_478" data-name="Path 478" d="M284.193,275.507h0l.2-3.614a26.3,26.3,0,0,1-17.759-1.189S269.341,277.12,284.193,275.507Z" fill="#122030"/>
        <g id="Group_474" data-name="Group 474">
          <path id="Path_479" data-name="Path 479" d="M269.815,283.579a35.151,35.151,0,0,1-14.713-3.208.7.7,0,1,1,.586-1.271,33.877,33.877,0,0,0,25.635,1.061.7.7,0,1,1,.48,1.315A35,35,0,0,1,269.815,283.579Z" fill="#57a17f"/>
        </g>
      </g>
      <path id="Path_480" data-name="Path 480" d="M253.086,238.754s3.706,12.108,5.852,12.108,0-25.558,0-25.558a15.774,15.774,0,0,0,11.263,1.809,14.77,14.77,0,0,0,9.018-6.344,18.6,18.6,0,0,0,13.4,4.841,19.335,19.335,0,0,0,13.3-5.88,18.684,18.684,0,1,0-28.138-24.5A15.958,15.958,0,0,0,249.848,207.7a13.45,13.45,0,0,0-15.33,3.425,15.244,15.244,0,0,0-2.157,15.936c2.331,5.16,7.247,8.234,12.852,9.035A13.843,13.843,0,0,1,253.086,238.754Z" fill="#122030"/>
      <circle id="Ellipse_8" data-name="Ellipse 8" cx="7.687" cy="7.687" r="7.687" transform="translate(266.235 231.088)" fill="rgba(0,0,0,0)" stroke="#fff" stroke-miterlimit="10" stroke-width="2"/>
      <circle id="Ellipse_9" data-name="Ellipse 9" cx="7.687" cy="7.687" r="7.687" transform="translate(283.055 230.174)" fill="rgba(0,0,0,0)" stroke="#fff" stroke-miterlimit="10" stroke-width="2"/>
      <g id="Group_476" data-name="Group 476">
        <path id="Path_481" data-name="Path 481" d="M290.743,346.981a2.336,2.336,0,0,1-1.817-.864L266.448,318.47a2.342,2.342,0,1,1,3.634-2.954l22.477,27.647a2.341,2.341,0,0,1-1.816,3.818Z" fill="#ffc100"/>
      </g>
      <path id="Path_482" data-name="Path 482" d="M272.889,347.888s-1.43,13.036,8.985,16.524l12.677-24.447S276.088,334.782,272.889,347.888Z" fill="#f7969d"/>
      <path id="Path_483" data-name="Path 483" d="M334.479,389.543l15.449-64.975H291.348L275.9,389.543Z" fill="#fff"/>
      <path id="Path_484" data-name="Path 484" d="M350.232,356.483c-4.787-3.711-19.623.262-20.946,2.585s5.027,3.57,5.027,3.57-5.655,2.7-5.132,4.877,4.071,1.586,4.071,1.586-6.437,2.545-6.309,4.759,6.1,2.043,6.1,2.043-4.674,3.1-3.674,4.908,18.292-.355,18.287-2.455-2.634-3.889-2.634-3.889,7.433-2.585,6.9-5.146-3.961-2.105-3.961-2.105,4.792-2.255,4.533-4.594-4.017-1.938-4.017-1.938S351.879,357.759,350.232,356.483Z" fill="#f7969d"/>
      <g id="Group_477" data-name="Group 477">
        <path id="Path_485" data-name="Path 485" d="M216.059,362.82a.7.7,0,0,1-.158-1.381l49.323-11.43a.7.7,0,1,1,.316,1.363L216.218,362.8A.669.669,0,0,1,216.059,362.82Z" fill="#57a17f"/>
      </g>
      <g id="Group_478" data-name="Group 478">
        <path id="Path_486" data-name="Path 486" d="M241.2,388.255a.7.7,0,0,1-.214-1.367,142.233,142.233,0,0,0,34.954-15.845.7.7,0,1,1,.721,1.2,143.418,143.418,0,0,1-35.248,15.98A.721.721,0,0,1,241.2,388.255Z" fill="#57a17f"/>
      </g>
    </g>
    <rect id="Rectangle_246" data-name="Rectangle 246" width="49.437" height="37.175" rx="4" transform="translate(138.338 127.73)" fill="#ffd45a"/>
    <g id="Group_480" data-name="Group 480">
      <rect id="Rectangle_247" data-name="Rectangle 247" width="9.327" height="17.286" transform="translate(597.932 154.323) rotate(45)" fill="#122030"/>
      <rect id="Rectangle_248" data-name="Rectangle 248" width="43.804" height="10.299" transform="translate(600.609 161.94) rotate(45)" fill="#122030"/>
      <circle id="Ellipse_10" data-name="Ellipse 10" cx="28.625" cy="28.625" r="28.625" transform="translate(538.007 106.621)" fill="#e0eefb" opacity="0.5" style="mix-blend-mode: screen;isolation: isolate"/>
      <path id="Path_487" data-name="Path 487" d="M578.575,162.179a28.614,28.614,0,0,1-42.334-22.926H525.479a39.352,39.352,0,0,0,53.1,34.71Z" fill="#9ed3ff" opacity="0.2" style="mix-blend-mode: multiply;isolation: isolate"/>
      <path id="Path_488" data-name="Path 488" d="M594.466,107.412a39.363,39.363,0,1,0,0,55.668A39.363,39.363,0,0,0,594.466,107.412Zm-7.593,48.075a28.625,28.625,0,1,1,0-40.482A28.625,28.625,0,0,1,586.873,155.487Z" fill="#0095f5"/>
      <path id="Path_489" data-name="Path 489" d="M624.107,204.944l-19.9-19.9a8.643,8.643,0,0,1,0-12.223h0a8.644,8.644,0,0,1,12.223,0l19.9,19.9a8.642,8.642,0,0,1,0,12.223h0A8.644,8.644,0,0,1,624.107,204.944Z" fill="#ffd45a"/>
    </g>
    <g id="Group_481" data-name="Group 481">
      <path id="Path_490" data-name="Path 490" d="M603.08,300.478c2.967-.9,6.356-1.1,8.612-3.227,3.152-2.974,2.663-8.392,5.613-11.566,2.65-2.851,7.153-2.955,10.385-5.125,2.483-1.667,4.011-4.418,5.152-7.182s2-5.673,3.577-8.214,4.071-4.737,7.047-5.027,6.237,1.969,6.228,4.96c-.014,4.149-5.28,6.033-7.4,9.6-3.957,6.653,4.334,15.864.382,22.52-2.186,3.681-7.24,4.738-9.706,8.238-3.863,5.483.446,13.848-3.174,19.495-3.7,5.775-13.565,5.331-16.535,11.515-1.732,3.605-.261,7.871-.535,11.862a16.636,16.636,0,0,1-6.672,11.622,29.924,29.924,0,0,1-12.616,5.3c-3.944.789-8.467.96-11.532-1.645-2.865-2.434-3.573-6.691-2.791-10.368s2.8-6.951,4.65-10.221,3.617-6.749,3.81-10.5c.125-2.438-.422-4.872-.317-7.311.14-3.272,2.164-4.194,3.363-6.725,1.035-2.187.6-5.191,1.538-7.571A17.639,17.639,0,0,1,603.08,300.478Z" fill="#e9e9f2"/>
      <path id="Path_491" data-name="Path 491" d="M591.743,347.129c4.615-1.511,7.987-5.6,9.978-10.03s2.838-9.269,4.044-13.974,2.867-9.459,6.139-13.049c3.807-4.177,9.339-6.3,13.781-9.793a27.575,27.575,0,0,0,10.124-17.509c.458-3.153.365-6.391,1.144-9.48s2.687-6.162,5.717-7.148" fill="rgba(0,0,0,0)" stroke="#fafafc" stroke-linecap="round" stroke-linejoin="round" stroke-width="1"/>
      <path id="Path_492" data-name="Path 492" d="M594.489,353.8c2.948-2.586,6.954-3.752,9.809-6.441,5.8-5.461,5.368-15.651,11.683-20.506,5.76-4.427,14.929-2.562,20.1-7.666,2.2-2.176,3.236-5.243,4.9-7.857s4.561-4.973,7.58-4.279c3.068.706,4.674,4.4,4.112,7.5s-2.7,5.656-4.887,7.917-4.575,4.462-5.876,7.329c-1.354,2.987-1.387,6.374-1.734,9.635s-1.156,6.721-3.589,8.92c-4.765,4.3-13.256,1.772-17.879,6.228-2.7,2.606-3.117,6.718-4.68,10.132a15.761,15.761,0,0,1-10.227,8.57c-4.32,1.118-11.639.729-13.044-4.375C589.315,363.681,590.289,357.484,594.489,353.8Z" fill="#f0f0f6"/>
      <path id="Path_493" data-name="Path 493" d="M597,367.176c3.631.03,6.944-2.268,9.17-5.137s3.586-6.3,5.138-9.578,3.4-6.563,6.3-8.751c4.8-3.627,12.072-3.99,15.351-9.036,2.4-3.687,1.841-8.874,4.715-12.2,1.518-1.757,3.75-2.688,5.72-3.919s3.867-3.086,3.921-5.408" fill="rgba(0,0,0,0)" stroke="#fafafc" stroke-linecap="round" stroke-linejoin="round" stroke-width="1"/>
      <path id="Path_494" data-name="Path 494" d="M629.724,246.72a1.631,1.631,0,0,0-1.411-.513,5.292,5.292,0,0,0-2.827,2.027c.126-.392.235-.789.357-1.183.559-.694,2.975-3.824,2.375-5.393a1.358,1.358,0,0,0-1.15-.848,1.643,1.643,0,0,0-1.477.451c-1.218,1.241-.753,4.635-.617,5.467-.167.543-.33,1.086-.506,1.625-.105-1.45-.4-3.006-1.147-3.543a1.187,1.187,0,0,0-1.186-.116,1.377,1.377,0,0,0-.845.933c-.458,1.615,1.593,4.657,2.216,5.53q-.825,2.295-1.759,4.548c-.111-1.961-.462-4.561-1.535-5.333a1.3,1.3,0,0,0-1.241-.162,1.386,1.386,0,0,0-.891.921c-.574,1.825,1.987,5.71,2.714,6.761q-.727,1.638-1.514,3.248c-.376-2.013-1.131-4.968-2.407-5.526a1.268,1.268,0,0,0-1.3.177,1.663,1.663,0,0,0-.708,1.275c-.136,1.921,2.526,4.8,3.55,5.835-1.021,1.994-2.117,3.949-3.268,5.871.018-2.54-.176-6.931-1.677-8a1.476,1.476,0,0,0-1.485-.136,1.847,1.847,0,0,0-1.094,1.213c-.736,2.431,2.357,7.385,3.193,8.661q-1.258,2.009-2.612,3.955c-.1-2.228-.5-6.265-2.012-7.262a1.54,1.54,0,0,0-1.509-.1,1.721,1.721,0,0,0-1.033,1.207c-.542,2.219,2.612,6.415,3.549,7.6-1.269,1.765-2.6,3.482-3.982,5.162.217-2.656.406-7.793-1.236-9.059a1.605,1.605,0,0,0-1.662-.171,2.158,2.158,0,0,0-1.3,1.4c-.859,2.663,2.237,7.974,3.023,9.26-1.2,1.411-2.455,2.779-3.734,4.122.17-2.734.31-8.646-1.52-10.052a1.658,1.658,0,0,0-1.67-.207,2.084,2.084,0,0,0-1.3,1.345c-.936,2.757,2.472,8.67,3.338,10.1a98.937,98.937,0,0,1-9.738,8.691l.567.729a99.827,99.827,0,0,0,9.88-8.825,32.743,32.743,0,0,0,7.88,1.418,4.427,4.427,0,0,0,2.776-.678,1.671,1.671,0,0,0,.555-1.577,2.034,2.034,0,0,0-1.015-1.517c-1.928-1.133-6.185-.033-8.664.767q1.74-1.848,3.39-3.776a33.456,33.456,0,0,0,5.646.588c1.756,0,3.4-.248,4.154-1.046a1.745,1.745,0,0,0,.38-1.74,2.092,2.092,0,0,0-1.265-1.462c-1.822-.743-5.092.571-7.253,1.638q1.836-2.271,3.545-4.642a41.77,41.77,0,0,0,4.484.265c2.41,0,5.016-.28,6-1.373a1.707,1.707,0,0,0,.389-1.6,1.816,1.816,0,0,0-1.077-1.3c-1.968-.849-6.145.987-8.534,2.2q1.227-1.788,2.379-3.625c1.523-.125,8.269-.8,9.543-3.018a1.689,1.689,0,0,0,.024-1.654,1.854,1.854,0,0,0-1.365-1.048c-1.791-.335-4.661,1.575-6.642,3.129.957-1.636,1.882-3.292,2.747-4.979,1.369-.018,7.01-.2,8.055-1.924a1.3,1.3,0,0,0,.014-1.332,1.662,1.662,0,0,0-1.164-.889c-1.655-.374-4.427,1.291-6.052,2.409q.818-1.672,1.575-3.372c1.509-.25,6.564-1.21,7.234-2.979a1.316,1.316,0,0,0-.286-1.369,1.85,1.85,0,0,0-1.458-.686h-.014c-1.386,0-3.1,1.3-4.365,2.48.578-1.4,1.115-2.821,1.629-4.249,1.26-.384,5.3-1.735,5.744-3.426A1.336,1.336,0,0,0,629.724,246.72Z" fill="#ededf4"/>
    </g>
    <g id="Group_485" data-name="Group 485">
      <path id="Path_495" data-name="Path 495" d="M350.344,128.024a19.806,19.806,0,0,0-19.806-19.807h0a19.807,19.807,0,0,0-19.807,19.807v11.229h39.613Z" fill="#bad9f6"/>
      <g id="Group_482" data-name="Group 482">
        <path id="Path_496" data-name="Path 496" d="M527.269,271.863h0a19.806,19.806,0,0,1-19.806-19.806V128.024a19.806,19.806,0,0,0-19.807-19.806H330.538a19.805,19.805,0,0,1,19.806,19.806V252.057a19.806,19.806,0,0,0,19.807,19.806H527.269Z" fill="#fff"/>
      </g>
      <path id="Path_497" data-name="Path 497" d="M396.37,161.774H367.991v-3.615H396.37Zm0,44.113H367.991V209.5H396.37Zm0,47.728H367.991v3.615H396.37Zm33.6-97.264h-3.643v3.616h3.643Zm-61.974,62.7h38.957v-3.615H367.991Zm42.6,0h31.462v-3.615H410.591Zm35.105-3.615v3.615h44.12v-3.615Zm-77.705,9.546v3.614H424.5v-3.586Zm60.153.028v3.586h61.672v-3.614ZM367.991,186.8v3.615h15.447V186.8Zm19.091,0v3.615h27.98V186.8Zm18.005-9.546v3.615h35.908V177.25Zm-37.1,0v3.615h33.453V177.25Zm76.648,0v3.615h45.177V177.25ZM367.991,167.7v3.616h58.331V167.7Zm97.241,0v3.616h24.584V167.7Zm-35.267,0v3.616h31.624V167.7Zm-40.933,66.82H367.991v3.615h21.041Zm3.644,0v3.615h69.269v-3.615Z" fill="#e0eefb"/>
      <g id="Group_483" data-name="Group 483">
        <path id="Path_498" data-name="Path 498" d="M573.132,198.174h0a26.056,26.056,0,0,0-26.056,26.056v27.827a19.806,19.806,0,0,1-19.807,19.806H370.151a19.805,19.805,0,0,0,19.806-19.806V224.23a26.056,26.056,0,0,1,26.056-26.056H573.132Z" fill="#bad9f6"/>
      </g>
      <path id="Path_499" data-name="Path 499" d="M573.132,198.174a26.056,26.056,0,0,1,26.055,26.056V372.023a26.056,26.056,0,0,0,26.056,26.056H468.125a26.055,26.055,0,0,1-26.056-26.056V224.23a26.056,26.056,0,0,0-26.056-26.056Z" fill="#fff"/>
      <g id="Group_484" data-name="Group 484">
        <path id="Path_500" data-name="Path 500" d="M468.125,398.079h0a26.055,26.055,0,0,0,26.055-26.056H651.3a26.056,26.056,0,0,1-26.056,26.056H468.125Z" fill="#bad9f6"/>
      </g>
      <path id="Path_501" data-name="Path 501" d="M489.968,218.679H461.589v-3.615h28.379Zm0,44.113H461.589v3.615h28.379Zm0,47.728H461.589v3.615h28.379ZM551.9,329.611H461.589v3.615H551.9ZM523.563,213.256H519.92v3.615h3.643Zm-40.8,106.81H461.589v3.615h21.173Zm3.643,3.615h35.26v-3.615H486.4Zm38.9-3.615v3.615h58.1v-3.615Zm-63.72-44.114h38.956v-3.615H461.589Zm42.6,0h31.462v-3.615H504.189Zm35.105-3.615v3.615h44.12v-3.615Zm-77.705,9.546V285.5H518.1v-3.586Zm60.152.029V285.5h61.673v-3.615ZM461.589,243.7v3.616h15.447V243.7Zm19.091,0v3.616h27.98V243.7Zm18.005-9.545v3.615h35.908v-3.615Zm-37.1,0v3.615h33.453v-3.615Zm76.648,0v3.615h45.177v-3.615Zm-76.648-9.546v3.615H519.92v-3.615Zm97.241,0v3.615h24.584v-3.615Zm-35.267,0v3.615h31.623v-3.615ZM482.63,291.428H461.589v3.616H482.63Zm3.644,0v3.616h69.269v-3.616Z" fill="#e0eefb"/>
      <path id="Path_502" data-name="Path 502" d="M386.717,144.319h-9.972l-1.344,4.219h-6.712l9.129-26.85h7.825l9.13,26.85H388.06Zm-1.841-5.754-3.146-9.858-3.144,9.858Zm32.49-9.206v19.179h-5.754v-1.8a7.2,7.2,0,0,1-5.715,2.339c-5.025,0-9.167-4.411-9.167-10.126s4.142-10.127,9.167-10.127a7.2,7.2,0,0,1,5.715,2.34v-1.8Zm-5.754,9.59a4.566,4.566,0,1,0-4.564,4.679A4.379,4.379,0,0,0,411.612,138.949Z" fill="#7fc89b"/>
    </g>
    <g id="Group_486" data-name="Group 486">
      <rect id="Rectangle_249" data-name="Rectangle 249" width="72.621" height="48.453" transform="translate(356.365 285.649)" fill="#fff"/>
      <rect id="Rectangle_250" data-name="Rectangle 250" width="43.042" height="67.21" transform="translate(426.28 288.355) rotate(90)" fill="#9ed3ff"/>
      <path id="Path_503" data-name="Path 503" d="M426.28,316.674l-10.541-10.54-14,14-21.5-21.5-21.178,21.178V331.4h67.21Z" fill="#cbe7ff"/>
      <path id="Path_504" data-name="Path 504" d="M407.29,300.978a5.713,5.713,0,1,1-5.713-5.713A5.713,5.713,0,0,1,407.29,300.978Z" fill="#fff"/>
    </g>
    <g id="Group_487" data-name="Group 487">
      <path id="Path_505" data-name="Path 505" d="M338.786,156.246h-37.52a4,4,0,0,0-4,4v20.88a4,4,0,0,0,4,4h23.159l-1.992,7.845,9.437-7.845h6.916a4,4,0,0,0,4-4v-20.88A4,4,0,0,0,338.786,156.246Z" fill="#bad9f6"/>
      <path id="Path_506" data-name="Path 506" d="M320.026,166.887a3.8,3.8,0,1,1-3.8,3.8A3.8,3.8,0,0,1,320.026,166.887Zm-11.788,0a3.8,3.8,0,1,0,3.8,3.8A3.8,3.8,0,0,0,308.238,166.887Zm19.778,3.8a3.8,3.8,0,1,0,3.8-3.8A3.8,3.8,0,0,0,328.016,170.686Z" fill="#fff"/>
    </g>
    <g id="Group_488" data-name="Group 488">
      <path id="Path_507" data-name="Path 507" d="M255.837,179.058a33.207,33.207,0,0,0,32.628-39.439H223.21a33.207,33.207,0,0,0,32.627,39.439Z" fill="#9ed3ff" opacity="0.2" style="mix-blend-mode: multiply;isolation: isolate"/>
      <circle id="Ellipse_11" data-name="Ellipse 11" cx="33.218" cy="33.218" r="33.218" transform="translate(225.703 109.539)" fill="#ffd45a"/>
      <path id="Path_508" data-name="Path 508" d="M258.921,120.267l6.668,13.512,14.911,2.167-10.79,10.517,2.547,14.851L258.921,154.3l-13.337,7.012,2.547-14.851-10.79-10.517,14.911-2.167Z" fill="#fff"/>
    </g>
    <g id="Group_489" data-name="Group 489">
      <path id="Path_509" data-name="Path 509" d="M171.425,227.761a28.808,28.808,0,1,0,0-45.951Z" fill="#9ed3ff" opacity="0.2" style="mix-blend-mode: multiply;isolation: isolate"/>
      <circle id="Ellipse_12" data-name="Ellipse 12" cx="28.808" cy="28.808" r="28.808" transform="translate(150.14 202.704) rotate(-45)" fill="#f75244"/>
      <path id="Path_510" data-name="Path 510" d="M195.317,214.066l-4.432,2.869-4.432-2.865c-11.079-7.162-11.079-12.279-11.079-14.2a8.166,8.166,0,0,1,15.511-3.563,8.161,8.161,0,0,1,15.5,3.563C206.388,201.791,206.388,206.9,195.317,214.066Z" fill="#fff"/>
    </g>
    <path id="Path_511" data-name="Path 511" d="M134.2,251.582a8.987,8.987,0,0,0-17.82-1.592,6.079,6.079,0,1,0-1.077,12.062h18.854a5.235,5.235,0,0,0,.043-10.47Z" fill="#f0f0f6"/>
    <g id="Group_490" data-name="Group 490">
      <path id="Path_512" data-name="Path 512" d="M138.338,131.73v20.743a25.725,25.725,0,0,0,17.386-24.331c0-.138-.009-.274-.011-.412H142.338A4,4,0,0,0,138.338,131.73Z" fill="#122030"/>
      <circle id="Ellipse_13" data-name="Ellipse 13" cx="25.719" cy="25.719" r="25.719" transform="translate(104.286 97.845)" fill="#f75244"/>
      <path id="Path_513" data-name="Path 513" d="M141.45,127.043l-2.159-2.945a4.657,4.657,0,0,1-.9-2.754v-4.372a7.008,7.008,0,0,0-6.481-6.986c0-.009,0-.018,0-.027a1.906,1.906,0,0,0-3.811,0c0,.009,0,.018,0,.027a7.008,7.008,0,0,0-6.482,6.986v4.372a4.657,4.657,0,0,1-.9,2.754l-2.159,2.945a5.843,5.843,0,0,0-1.131,3.455v2a1.169,1.169,0,0,0,1.169,1.169h8.671a2.736,2.736,0,0,0,5.473,0h8.672a1.169,1.169,0,0,0,1.169-1.169v-2A5.844,5.844,0,0,0,141.45,127.043Z" fill="#fff"/>
    </g>
    <g id="Group_496" data-name="Group 496">
      <rect id="Rectangle_251" data-name="Rectangle 251" width="69.098" height="49.914" rx="4" transform="translate(137.792 271.52)" fill="#0095f5"/>
      <g id="Group_495" data-name="Group 495">
        <g id="Group_493" data-name="Group 493">
          <g id="Group_491" data-name="Group 491">
            <path id="Path_514" data-name="Path 514" d="M202.039,315.778H187.775a1.023,1.023,0,1,1,0-2.045h14.264a1.023,1.023,0,0,1,0,2.045Z" fill="#122030"/>
          </g>
          <g id="Group_492" data-name="Group 492">
            <path id="Path_515" data-name="Path 515" d="M187.775,315.778H142.644a1.023,1.023,0,1,1,0-2.045h45.131a1.023,1.023,0,0,1,0,2.045Z" fill="#ffc100"/>
          </g>
          <path id="Path_516" data-name="Path 516" d="M189.953,314.755a2.179,2.179,0,1,1-2.178-2.178A2.179,2.179,0,0,1,189.953,314.755Z" fill="#fffdff"/>
        </g>
        <g id="Group_494" data-name="Group 494">
          <circle id="Ellipse_14" data-name="Ellipse 14" cx="13.378" cy="13.378" r="13.378" transform="translate(156.905 305.023) rotate(-80.323)" fill="#fffdff"/>
          <path id="Path_517" data-name="Path 517" d="M178.853,294.083l-5.079,2.932-5.079,2.932v-11.73l5.079,2.932Z" fill="#ffc100"/>
        </g>
      </g>
    </g>
    <g id="Group_505" data-name="Group 505">
      <g id="Group_497" data-name="Group 497">
        <path id="Path_518" data-name="Path 518" d="M652.9,357.447l-1.56-3.087a5.6,5.6,0,1,0-5.054-10l-1.559-3.088a9.064,9.064,0,0,1,8.173,16.18Z" fill="#e8d5fe"/>
      </g>
      <g id="Group_498" data-name="Group 498">
        <path id="Path_519" data-name="Path 519" d="M518.89,109.861a9.064,9.064,0,0,1,8.733-15.885l-1.667,3.031a5.6,5.6,0,1,0-5.4,9.823Z" fill="#e8d5fe"/>
      </g>
      <g id="Group_499" data-name="Group 499">
        <path id="Path_520" data-name="Path 520" d="M295.79,115.422l-7.139-16.68,18.015,2.159ZM293.265,102.2l3.21,7.5,4.891-6.531Z" fill="#bad9f6"/>
      </g>
      <g id="Group_500" data-name="Group 500">
        <path id="Path_521" data-name="Path 521" d="M611.594,230.47l4.525-17.423,12.827,12.631Zm6.059-11.867-2.015,7.76,7.728-2.134Z" fill="#bce2cb"/>
      </g>
      <g id="Group_501" data-name="Group 501">
        <path id="Path_522" data-name="Path 522" d="M129.207,204.033l-6.322-16.854,17.757,2.952Zm-1.871-13.193,2.816,7.507,5.094-6.192Z" fill="#e8d5fe"/>
      </g>
      <g id="Group_502" data-name="Group 502">
        <path id="Path_523" data-name="Path 523" d="M121.035,319.43l-1.907-2.161,2.406-2.122-3.356-3.352,3.558-3.141-3.356-3.357,4.706-4.158L125,303.3l-2.409,2.128,3.357,3.358-3.556,3.14,3.357,3.353Z" fill="#bce2cb"/>
      </g>
      <g id="Group_503" data-name="Group 503">
        <path id="Path_524" data-name="Path 524" d="M624.217,123.46l-1.907-2.161,2.406-2.122-3.356-3.352,3.559-3.141-3.356-3.357,4.706-4.158,1.908,2.16-2.409,2.128,3.357,3.358-3.556,3.14,3.357,3.353Z" fill="#bce2cb"/>
      </g>
      <g id="Group_504" data-name="Group 504">
        <path id="Path_525" data-name="Path 525" d="M197.042,114.314l-7.429-10.772,10.771-7.428,7.429,10.771Zm-3.42-10.035,4.156,6.026,6.026-4.156-4.156-6.026Z" fill="#bce2cb"/>
      </g>
    </g>
    <g id="Group_507" data-name="Group 507">
      <path id="Path_526" data-name="Path 526" d="M370.765,224.3a30.426,30.426,0,0,0-52.79,27.422l-10.155,6.421,12.826.185A30.427,30.427,0,1,0,370.765,224.3Z" fill="#9ed3ff" opacity="0.2" style="mix-blend-mode: multiply;isolation: isolate"/>
      <path id="Path_527" data-name="Path 527" d="M370.765,221.363a30.426,30.426,0,0,0-52.79,27.422l-10.155,6.421,12.826.185a30.427,30.427,0,1,0,50.119-34.028Z" fill="#0095f5"/>
      <g id="Group_506" data-name="Group 506">
        <path id="Path_528" data-name="Path 528" d="M357.657,235.654a11.021,11.021,0,1,0-18.494,8.088,2.153,2.153,0,0,1,.684,1.583v1.1a2.189,2.189,0,0,0,2.189,2.189h9.2a2.189,2.189,0,0,0,2.19-2.189v-1.1a2.156,2.156,0,0,1,.685-1.585A10.976,10.976,0,0,0,357.657,235.654Z" fill="#ffd45a"/>
        <path id="Path_529" data-name="Path 529" d="M350.391,252.754H342.88a1.492,1.492,0,0,1-1.493-1.493h0a1.493,1.493,0,0,1,1.493-1.494h7.511a1.494,1.494,0,0,1,1.494,1.494h0A1.493,1.493,0,0,1,350.391,252.754Z" fill="#fff"/>
        <path id="Path_530" data-name="Path 530" d="M349.662,256.894H343.61a1.494,1.494,0,0,1-1.494-1.494h0a1.494,1.494,0,0,1,1.494-1.494h6.052a1.494,1.494,0,0,1,1.493,1.494h0A1.494,1.494,0,0,1,349.662,256.894Z" fill="#fff"/>
      </g>
    </g>
  </g>
</svg>
